HIERARCHY
ROOT Pelvis
{
	OFFSET 0.000000 0.000000 0.000000
	CHANNELS 6 Xposition Yposition Zposition Xrotation Yrotation Zrotation
	JOINT LeftUpLeg_virtual
	{
		OFFSET 0.000000 0.000000 0.000000
		CHANNELS 3 Xrotation Yrotation Zrotation
		JOINT LeftUpLeg
		{
			OFFSET 18.735201 -5.666702 -4.541200
			CHANNELS 3 Xrotation Yrotation Zrotation
			JOINT LeftLeg
			{
				OFFSET -0.021200 -31.938179 0.493100
				CHANNELS 3 Xrotation Yrotation Zrotation
				JOINT LeftFoot
				{
					OFFSET 0.021200 -31.938179 -4.336299
					CHANNELS 3 Xrotation Yrotation Zrotation
					JOINT LeftToeBase
					{
						OFFSET 0.943001 -26.722000 15.023500
						CHANNELS 3 Xrotation Yrotation Zrotation
						End Site
						{
							OFFSET 0 0 0
						}
					}
				}
			}
		}
	}
	JOINT RightUpLeg_virtual
	{
		OFFSET 0.000000 0.000000 0.000000
		CHANNELS 3 Xrotation Yrotation Zrotation
		JOINT RightUpLeg
		{
			OFFSET -18.735201 -5.666702 -4.541200
			CHANNELS 3 Xrotation Yrotation Zrotation
			JOINT RightLeg
			{
				OFFSET 0.018946 -31.938133 0.493100
				CHANNELS 3 Xrotation Yrotation Zrotation
				JOINT RightFoot
				{
					OFFSET -0.018946 -31.938126 -4.336299
					CHANNELS 3 Xrotation Yrotation Zrotation
					JOINT RightToeBase
					{
						OFFSET -0.943001 -26.722004 15.023500
						CHANNELS 3 Xrotation Yrotation Zrotation
						End Site
						{
							OFFSET 0 0 0
						}
					}
				}
			}
		}
	}
	JOINT Hips_virtual
	{
		OFFSET 0.000000 0.000000 0.000000
		CHANNELS 3 Xrotation Yrotation Zrotation
		JOINT Hips
		{
			OFFSET -0.000000 -0.000000 -0.000000
			CHANNELS 3 Xrotation Yrotation Zrotation
			JOINT Spine
			{
				OFFSET 0.000000 10.199997 -0.299500
				CHANNELS 3 Xrotation Yrotation Zrotation
				JOINT Spine1
				{
					OFFSET 0.000000 11.900002 -1.516600
					CHANNELS 3 Xrotation Yrotation Zrotation
					JOINT Spine2
					{
						OFFSET 0.000000 13.600006 -2.842500
						CHANNELS 3 Xrotation Yrotation Zrotation
						JOINT Neck_virtual
						{
							OFFSET 0.000000 0.000000 0.000000
							CHANNELS 3 Xrotation Yrotation Zrotation
							JOINT Neck
							{
								OFFSET 0.000000 9.624100 -2.890100
								CHANNELS 3 Xrotation Yrotation Zrotation
								JOINT Head
								{
									OFFSET 0.000000 14.068802 -1.351900
									CHANNELS 3 Xrotation Yrotation Zrotation
									End Site
									{
										OFFSET 0 0 0
									}
								}
							}
						}
						JOINT LeftShoulder_virtual
						{
							OFFSET 0.000000 0.000000 0.000000
							CHANNELS 3 Xrotation Yrotation Zrotation
							JOINT LeftShoulder
							{
								OFFSET 15.263000 10.923401 -0.547700
								CHANNELS 3 Xrotation Yrotation Zrotation
								JOINT LeftArm
								{
									OFFSET 25.438599 -2.830597 -13.032500
									CHANNELS 3 Xrotation Yrotation Zrotation
									JOINT LeftForeArm
									{
										OFFSET 29.960503 0.000000 0.000000
										CHANNELS 3 Xrotation Yrotation Zrotation
										JOINT LeftHand
										{
											OFFSET 27.849251 0.000000 0.000000
											CHANNELS 3 Xrotation Yrotation Zrotation
											End Site
											{
												OFFSET 0 0 0
											}
										}
									}
								}
							}
						}
						JOINT RightShoulder_virtual
						{
							OFFSET 0.000000 0.000000 0.000000
							CHANNELS 3 Xrotation Yrotation Zrotation
							JOINT RightShoulder
							{
								OFFSET -15.263000 10.923401 -0.547700
								CHANNELS 3 Xrotation Yrotation Zrotation
								JOINT RightArm
								{
									OFFSET -25.438599 -2.830597 -13.032500
									CHANNELS 3 Xrotation Yrotation Zrotation
									JOINT RightForeArm
									{
										OFFSET -29.960503 0.000000 0.000000
										CHANNELS 3 Xrotation Yrotation Zrotation
										JOINT RightHand
										{
											OFFSET -27.849251 0.000000 0.000000
											CHANNELS 3 Xrotation Yrotation Zrotation
											End Site
											{
												OFFSET 0 0 0
											}
										}
									}
								}
							}
						}
					}
				}
			}
		}
	}
}
MOTION
Frames: 6
Frame Time: 0.03333333
-4.821611 83.426590 1.967941 0.000000 0.000000 0.000000 -0.518245 -55.885834 3.431843 -37.343448 9.341947 31.573212 45.962433 -9.979274 -12.129863 -9.621144 -3.053165 -12.919176 0.000000 0.000000 0.000000 -1.187122 -54.658602 2.762385 -30.122524 -7.967870 -28.977498 50.254848 4.430628 -6.888558 -24.864996 0.712816 26.987700 0.000000 0.000000 0.000000 -0.899820 -55.689077 3.279530 -0.646339 -0.582828 -0.831863 13.927768 -0.482553 -3.113936 7.412901 0.254715 -4.911259 0.000000 0.000000 0.000000 7.921962 0.217627 -4.960017 -2.953868 4.700115 2.206466 0.000000 0.000000 0.000000 7.980286 0.002581 -5.357729 -5.642457 -14.429123 -1.160068 -21.900896 6.194014 -37.321072 -2.255284 -40.679026 -0.988832 0.000000 0.000000 0.000000 7.756467 0.502380 -4.965538 -4.794119 6.569374 1.357179 -36.514236 -26.295815 30.325746 -165.808375 62.459546 167.443208 0.000000 0.000000 0.000000 
-4.907615 83.335236 1.919468 0.000000 0.000000 0.000000 -0.517342 -55.989031 3.418318 -37.299479 9.429890 31.519189 46.620119 -9.842119 -12.026681 -10.088399 -2.819478 -12.423151 0.000000 0.000000 0.000000 -1.086140 -54.630165 2.795313 -30.034360 -7.797960 -28.998593 50.230188 4.542638 -6.875347 -24.794683 0.766542 27.203055 0.000000 0.000000 0.000000 -0.951206 -55.654208 3.272047 -0.728098 -0.701263 -0.763550 13.482188 -0.516611 -3.002245 7.251866 0.247358 -4.928482 0.000000 0.000000 0.000000 7.622168 0.199250 -5.013930 -3.000259 4.681159 2.247773 0.000000 0.000000 0.000000 7.881619 -0.017459 -5.523893 -5.590439 -14.525353 -1.620860 -22.142235 5.581681 -37.734592 -2.173930 -40.815226 -0.888684 0.000000 0.000000 0.000000 7.588722 0.534453 -5.036435 -4.770593 6.995147 1.665988 -35.682592 -26.142732 31.825782 -164.498945 64.448272 166.223117 0.000000 0.000000 0.000000 
-5.055639 83.307884 2.127815 0.000000 0.000000 0.000000 -0.440509 -56.179716 3.327986 -37.232966 9.735651 31.734732 47.208598 -9.973569 -11.906187 -10.916025 -2.731341 -12.093794 0.000000 0.000000 0.000000 -0.842348 -54.788055 2.764123 -29.759018 -7.884713 -29.029960 49.837148 4.715299 -6.704312 -24.568978 0.954894 27.379032 0.000000 0.000000 0.000000 -0.841317 -55.547968 3.227808 -0.720506 -0.768590 -0.787073 12.696465 -0.507656 -2.779633 6.777695 0.251519 -5.078364 0.000000 0.000000 0.000000 7.015420 0.178039 -5.167168 -3.067291 4.652475 2.285288 0.000000 0.000000 0.000000 7.360319 -0.009911 -5.786754 -5.694946 -14.255049 -2.648881 -22.540608 4.364234 -38.320735 -2.111356 -40.445361 -0.751191 0.000000 0.000000 0.000000 6.976624 0.539582 -5.272599 -4.782888 6.968512 2.331037 -35.240703 -24.903607 34.057164 -160.655215 68.831942 162.568228 0.000000 0.000000 0.000000 
-5.229651 83.455208 2.488762 0.000000 0.000000 0.000000 -0.141317 -56.465153 3.272072 -37.027183 10.198845 32.211261 47.239361 -10.293706 -11.876228 -11.759275 -2.823281 -11.974350 0.000000 0.000000 0.000000 -0.409293 -55.105024 2.748359 -29.232451 -8.276580 -28.945023 48.739878 4.801760 -6.414623 -24.315654 1.119548 27.348057 0.000000 0.000000 0.000000 -0.427641 -55.445929 3.244097 -0.680711 -0.834413 -0.904102 11.700876 -0.456198 -2.531231 6.069697 0.269578 -5.303070 0.000000 0.000000 0.000000 6.200346 0.167426 -5.368624 -3.168452 4.632726 2.280477 0.000000 0.000000 0.000000 6.536819 0.029479 -6.047260 -5.902864 -13.626093 -3.916693 -23.034963 2.866227 -39.033927 -2.018530 -39.763162 -0.574623 0.000000 0.000000 0.000000 6.066457 0.524909 -5.574365 -4.819899 6.502186 3.207294 -35.481699 -22.853876 36.498400 -152.467540 74.313694 154.565624 0.000000 0.000000 0.000000 
-5.390498 83.834877 2.829990 0.000000 0.000000 0.000000 0.405684 -56.764227 3.304889 -36.656990 10.819866 32.841817 46.400248 -10.596839 -12.016370 -12.256354 -2.980394 -11.858399 0.000000 0.000000 0.000000 0.252526 -55.536931 2.820015 -28.460584 -8.846380 -28.617647 46.730795 4.778910 -6.047872 -23.963504 1.215399 27.138934 0.000000 0.000000 0.000000 0.231296 -55.456813 3.325338 -0.660317 -0.920534 -1.051710 10.652552 -0.394353 -2.324752 5.248310 0.313147 -5.500809 0.000000 0.000000 0.000000 5.299306 0.179764 -5.541143 -3.342305 4.639499 2.198737 0.000000 0.000000 0.000000 5.602646 0.106682 -6.213584 -6.137720 -12.775950 -5.135919 -23.496505 1.489175 -39.834514 -1.887076 -39.204739 -0.388793 0.000000 0.000000 0.000000 5.066032 0.505094 -5.823301 -4.867309 5.807894 4.145076 -36.158420 -20.576493 38.827631 -136.188672 79.189883 138.397022 0.000000 0.000000 0.000000 
-5.459841 84.412552 2.994522 0.000000 0.000000 0.000000 1.133449 -57.044319 3.423017 -36.217000 11.551112 33.499517 44.814930 -10.746343 -12.304708 -12.107342 -3.083499 -11.515190 0.000000 0.000000 0.000000 0.926437 -56.024978 2.887587 -27.616801 -9.419339 -28.029684 44.066779 4.721169 -5.709329 -23.097111 1.360440 26.978629 0.000000 0.000000 0.000000 0.992611 -55.650305 3.453081 -0.550031 -1.064466 -1.153876 9.808313 -0.324054 -2.198725 4.492618 0.381874 -5.593745 0.000000 0.000000 0.000000 4.494071 0.214351 -5.610911 -3.615249 4.689200 2.026264 0.000000 0.000000 0.000000 4.788540 0.180997 -6.236680 -6.301296 -11.859560 -5.866140 -23.874658 0.475136 -40.567383 -1.677248 -39.220370 -0.212833 0.000000 0.000000 0.000000 4.206564 0.498477 -5.938796 -4.921455 5.146698 4.911636 -36.772038 -18.629904 40.545601 -112.628549 81.618479 114.822556 0.000000 0.000000 0.000000 
